<?xml version="1.0" encoding="utf-8"?>
<!-- Generator: Adobe Illustrator 27.6.1, SVG Export Plug-In . SVG Version: 6.00 Build 0)  -->
<svg version="1.1" id="Layer_1" xmlns="http://www.w3.org/2000/svg" xmlns:xlink="http://www.w3.org/1999/xlink" x="0px" y="0px"
	 viewBox="0 0 573.7 230.4" style="enable-background:new 0 0 573.7 230.4;" xml:space="preserve">
<g>
	<path d="M11.3,78c0.3-1.7,0.5-4,0.5-6.8v-3.4V26v-3.4c0-2.8-0.2-5.1-0.5-6.8C10.9,14,10.2,11.8,9,9.2h31.3
		c-1.3,3.1-2.1,5.6-2.4,7.5c-0.3,1.9-0.4,5-0.4,9.2v18.8h20.4V26v-3.4c0-2.8-0.2-5.1-0.5-6.8C57,14,56.2,11.8,55,9.2h31.3
		c-1.3,3.1-2.1,5.6-2.4,7.5c-0.3,1.9-0.4,5-0.4,9.2v41.8c0,4.1,0.1,7.2,0.4,9.2c0.3,2,1.1,4.5,2.4,7.6H55c1.2-2.6,2-4.7,2.3-6.5
		c0.3-1.7,0.5-4,0.5-6.8v-3.4V46.5H37.5v21.2c0,4.1,0.1,7.2,0.4,9.2c0.3,2,1.1,4.5,2.4,7.6H9C10.2,81.9,10.9,79.7,11.3,78z"/>
	<path d="M104.2,81.9c-4.5-2.8-7.9-6.5-10.2-11.1c-2.3-4.6-3.4-9.4-3.4-14.5c0-5.3,1.2-10.3,3.8-15.1c2.5-4.8,6.2-8.6,11.3-11.6
		c5-3,11-4.4,18-4.4c5.2,0,9.6,0.7,13.1,2.2c3.5,1.5,6.2,3.4,7.9,5.8c1.7,2.4,2.6,5.1,2.6,7.9c0,3.1-1,6.1-2.9,9
		c-2,2.9-4.8,5.2-8.5,7c-3.7,1.8-7.9,2.7-12.8,2.7c-1.6,0-3.4-0.1-5.4-0.4c1.7,3.8,4.1,6.7,7.1,8.9s6.1,3.2,9.4,3.2
		c2.8,0,5.4-0.8,8-2.4c2.5-1.6,4.7-4,6.6-7.2l0.9,0.6c-0.8,5.1-2.8,9.4-5.9,12.9c-3.2,3.5-6.9,6.1-11.1,7.9
		c-4.2,1.8-8.3,2.6-12.1,2.6C114.1,86.2,108.7,84.8,104.2,81.9z M126.3,53.3c1.7-3.3,2.6-7.2,2.6-11.8c0-3.8-0.5-7.1-1.6-10
		c-1.1-2.9-2.4-4.3-4.1-4.3c-2.5,0-4.4,2-5.8,5.9c-1.4,3.9-2.1,8.4-2.1,13.5c0,4.4,0.6,8.2,1.7,11.5c0.4,0.1,0.9,0.1,1.5,0.1
		C122,58.2,124.6,56.6,126.3,53.3z"/>
	<path d="M149.5,84.5c1.2-2.6,2-4.7,2.3-6.5c0.3-1.7,0.5-4,0.5-6.8v-3.4V26c0-3.9-0.9-7.2-2.8-10c4.9,0,9.9-0.6,14.8-1.7
		c5-1.1,9.5-2.8,13.7-5.1v58.5c0,4.1,0.1,7.2,0.4,9.2c0.3,2,1.1,4.5,2.4,7.6H149.5z"/>
	<path d="M185.1,84.5c1.2-2.6,2-4.7,2.3-6.5c0.3-1.7,0.5-4,0.5-6.8v-3.4V26c0-3.9-0.9-7.2-2.8-10c4.9,0,9.9-0.6,14.8-1.7
		c5-1.1,9.5-2.8,13.7-5.1v58.5c0,4.1,0.1,7.2,0.4,9.2c0.3,2,1.1,4.5,2.4,7.6H185.1z"/>
	<path d="M234.6,81.9c-5-2.8-8.7-6.5-11.2-11c-2.5-4.5-3.8-9.4-3.8-14.5c0-5.2,1.3-10.2,3.8-14.9c2.5-4.7,6.3-8.6,11.3-11.6
		c5-3,10.9-4.5,17.8-4.5c6.9,0,12.7,1.5,17.6,4.4c4.9,3,8.6,6.8,11,11.5c2.5,4.7,3.7,9.7,3.7,14.9c0,5.2-1.2,10.1-3.7,14.7
		c-2.5,4.6-6.1,8.3-11,11.1c-4.9,2.8-10.8,4.2-17.6,4.2C245.5,86.2,239.5,84.8,234.6,81.9z M258.4,76.5c1.4-5.8,2.1-12.6,2.1-20.5
		c0-7.9-0.7-14.9-2.1-20.8c-1.4-6-3.4-8.9-5.9-8.9c-2.5,0-4.5,3-5.9,8.9c-1.4,6-2.1,12.9-2.1,20.8c0,7.9,0.7,14.7,2.1,20.5
		c1.4,5.8,3.4,8.7,5.9,8.7C255,85.2,257,82.3,258.4,76.5z"/>
	<path d="M113.3,181.8c0.3-1.7,0.5-4,0.5-6.8v-3.4v-41.8v-3.4c0-2.8-0.2-5.1-0.5-6.8c-0.3-1.8-1.1-3.9-2.3-6.5h31.3
		c-1.3,3.1-2.1,5.6-2.4,7.5c-0.3,1.9-0.4,5-0.4,9.2v41.8c0,4.1,0.1,7.2,0.4,9.2c0.3,2,1.1,4.5,2.4,7.6H111
		C112.2,185.7,112.9,183.6,113.3,181.8z"/>
	<path d="M153.1,135.6c2-0.6,3.9-1.6,5.6-3.2c1.7-1.6,2.6-3.4,2.6-5.6c-1.4,0.9-3.1,1.4-5,1.4c-3.1,0-5.5-1-7.2-3
		c-1.7-2-2.6-4.4-2.6-7.2c0-2.9,0.9-5.3,2.7-7.4c1.8-2.1,4.4-3.2,7.7-3.2c3.6,0,6.4,1.3,8.4,4c2,2.6,3,5.8,3,9.4c0,2.6-0.7,5-2,7.4
		c-1.4,2.4-3.2,4.3-5.5,5.8c-2.3,1.5-4.8,2.4-7.5,2.6L153.1,135.6z"/>
	<path d="M215.2,182.1c0.3-1.7,0.5-4,0.5-6.8v-3.4V153c0-2.6-0.3-4.6-1-6c-0.7-1.4-1.6-2-2.7-2c-1.1,0-2.4,0.7-3.8,2.1
		c-1.4,1.4-2.7,3.5-4,6.3c-1.3,2.8-2.3,6-3.1,9.8v8.5c0,4.1,0.1,7.2,0.4,9.2c0.3,2,1.1,4.5,2.4,7.6h-31.3c1.2-2.6,2-4.7,2.3-6.5
		c0.3-1.7,0.5-4,0.5-6.8v-3.4v-23c0-2.4-0.1-4.4-0.4-6.1c-0.3-1.7-1.1-3.6-2.4-5.6c4.9,0,9.9-0.6,14.8-1.7c5-1.1,9.5-2.8,13.7-5.1
		V159c1.3-4.5,3.1-9,5.4-13.6c2.3-4.5,5.1-8.4,8.5-11.5c3.3-3.1,6.9-4.7,10.8-4.7c4.4,0,7.8,1.3,10.1,3.8c2.3,2.5,3.8,5.7,4.5,9.6
		c0.7,3.9,1.1,8.6,1.1,14.2v3.9c1.1-4.5,2.9-9.2,5.3-14c2.4-4.8,5.2-8.9,8.7-12.3c3.4-3.4,7.1-5.1,11.1-5.1c4.4,0,7.8,1.3,10.1,3.8
		c2.3,2.5,3.8,5.7,4.5,9.6c0.7,3.9,1.1,8.6,1.1,14.2v15.1c0,4.1,0.1,7.2,0.4,9.2c0.3,2,1.1,4.5,2.4,7.6h-31.3c1.2-2.6,2-4.7,2.3-6.5
		c0.3-1.7,0.5-4,0.5-6.8v-3.4V153c0-2.6-0.3-4.6-1-6c-0.7-1.4-1.6-2-2.7-2c-1.2,0-2.6,0.8-4,2.4c-1.5,1.6-2.8,3.9-4.1,7
		c-1.3,3.1-2.3,6.7-3.1,10.9v6.5c0,4.1,0.1,7.2,0.4,9.2c0.3,2,1.1,4.5,2.4,7.6h-31.3C214.1,186,214.8,183.8,215.2,182.1z"/>
	<path d="M346.4,114.9h-10.3c-5.3,0-12,3.9-20.1,11.6l2.4-13.4h56.8l-33.6,73.4h12c3.3,0,6.8-1.3,10.7-4c3.8-2.6,7.9-5.9,12.3-9.9
		l-5.1,15.6h-58.5L346.4,114.9z"/>
	<path d="M388.1,185.8c-5-2.8-8.7-6.5-11.2-11c-2.5-4.5-3.8-9.4-3.8-14.5c0-5.2,1.3-10.2,3.8-14.9c2.5-4.8,6.3-8.6,11.3-11.6
		c5-3,10.9-4.5,17.8-4.5c6.9,0,12.7,1.5,17.6,4.4c4.9,3,8.6,6.8,11,11.5c2.5,4.7,3.7,9.7,3.7,14.9c0,5.2-1.2,10.1-3.7,14.7
		c-2.5,4.6-6.1,8.3-11,11.1c-4.9,2.8-10.8,4.2-17.6,4.2C399,190,393.1,188.6,388.1,185.8z M411.9,180.4c1.4-5.8,2.1-12.6,2.1-20.5
		c0-7.9-0.7-14.9-2.1-20.8c-1.4-6-3.4-8.9-5.9-8.9c-2.5,0-4.5,3-5.9,8.9c-1.4,6-2.1,12.9-2.1,20.8c0,7.9,0.7,14.7,2.1,20.5
		c1.4,5.8,3.4,8.7,5.9,8.7C408.5,189.1,410.5,186.2,411.9,180.4z"/>
	<path d="M456.3,185.8c-4.5-2.8-7.9-6.5-10.2-11.1c-2.3-4.6-3.4-9.4-3.4-14.5c0-5.3,1.2-10.3,3.8-15.1c2.5-4.7,6.2-8.6,11.2-11.6
		c5-3,11-4.4,18-4.4c5.2,0,9.6,0.7,13.1,2.2c3.5,1.5,6.2,3.4,7.9,5.8c1.7,2.4,2.6,5.1,2.6,7.9c0,3.1-1,6.1-2.9,9
		c-2,2.9-4.8,5.2-8.5,7c-3.7,1.8-7.9,2.7-12.8,2.7c-1.6,0-3.4-0.1-5.4-0.4c1.7,3.8,4.1,6.8,7.1,8.9s6.1,3.2,9.4,3.2
		c2.8,0,5.4-0.8,8-2.4c2.5-1.6,4.7-4,6.6-7.2l0.9,0.6c-0.8,5.1-2.8,9.4-5.9,12.9c-3.2,3.5-6.9,6.1-11.1,7.9
		c-4.2,1.8-8.2,2.6-12.1,2.6C466.2,190,460.8,188.6,456.3,185.8z M478.4,157.1c1.7-3.3,2.6-7.2,2.6-11.8c0-3.8-0.5-7.1-1.6-10
		c-1.1-2.9-2.4-4.3-4.1-4.3c-2.5,0-4.4,2-5.8,5.9c-1.4,3.9-2.1,8.4-2.1,13.5c0,4.4,0.6,8.3,1.7,11.5c0.4,0.1,0.9,0.1,1.5,0.1
		C474,162.1,476.6,160.4,478.4,157.1z"/>
	<path d="M511,218c-2.2-2.1-3.4-4.5-3.4-7.4c0-1.9,0.5-3.8,1.6-5.5c1.1-1.7,2.6-3.1,4.6-4.2c1.7,1.9,3.5,3.2,5.5,4.2
		c1.9,0.9,3.8,1.4,5.6,1.4c3.9,0,7-1.2,9.3-3.5c2.3-2.3,3.4-5.1,3.4-8.2c0-2.1-0.6-4.2-1.7-6.1c-1.1-1.9-2.9-3.5-5.1-4.7
		c-2.3-1.2-5-1.8-8.3-1.8l-16.8-40.7c-1.1-2.6-2.4-4.9-3.9-6.9c-1.5-2-3-3.5-4.5-4.5h35.4c-0.9,1.2-1.4,2.5-1.4,3.8
		c0,0.6,0.1,1.5,0.4,2.5l13.7,34.5h1.1l7.1-21.4c0.5-1.4,0.8-2.9,0.8-4.4c0-4.5-2.1-9.5-6.2-14.9h16.6c-2.4,3.2-4.2,5.8-5.2,7.9
		s-2.2,4.9-3.4,8.7l-18.5,55.2c-2.2,6.6-4.8,11.5-7.9,14.6c-3,3.1-6.2,4.6-9.5,4.6C516.3,221.1,513.2,220.1,511,218z"/>
</g>
</svg>
